<svg xmlns="http://www.w3.org/2000/svg" preserveAspectRatio="xMaxYMax slice" viewBox="0 0 1000 727.27">
  <path fill="#727f6a" d="M90.9 0h90.92v90.9H90.9z"/>
  <path fill="#4e2f41" d="m227.27 0 45.46 45.45-45.46 45.46-45.45-45.46L227.27 0Z"/>
  <path fill="#3c4247" d="M363.64 0h90.9v9.1h-90.9zm0 18.18h90.9v9.1h-90.9zm0 18.18h90.9v9.1h-90.9zm0 18.19h90.9v9.09h-90.9zm0 18.18h90.9v9.09h-90.9z"/>
  <path fill="#a22348" d="M454.55 0h90.9v90.9h-90.9z"/>
  <path fill="#42846f" d="M545.45 90.9A90.9 90.9 0 0 0 636.36 0h-90.9"/>
  <path fill="#3b665c" d="M636.36 0h90.91l-90.9 90.9z"/>
  <path fill="#a3b78a" d="M727.27 0h90.91v9.1h-90.9zm0 18.18h90.91v9.1h-90.9zm0 18.18h90.91v9.1h-90.9zm0 18.19h90.91v9.09h-90.9zm0 18.18h90.91v9.09h-90.9z"/>
  <path fill="#50bb8f" d="M818.18 90.9A90.9 90.9 0 0 1 909.1 0l-90.9 90.9A90.9 90.9 0 0 0 909.08 0"/>
  <path fill="#afc492" fill-rule="evenodd" d="M954.55 90.9a45.45 45.45 0 1 0 0-90.9 45.45 45.45 0 0 0 0 90.9Zm0-13.63a31.82 31.82 0 1 0 0-63.63 31.82 31.82 0 0 0 0 63.63Z" clip-rule="evenodd"/>
  <path fill="#4e2f41" d="M1000 0h90.9L1000 90.9z"/>
  <path fill="#33484a" d="M90.9 90.9a90.9 90.9 0 0 1 90.92 90.92H90.9"/>
  <path fill="#98aa83" d="M181.82 90.9h90.9v9.1h-90.9zm0 18.2h90.9v9.08h-90.9zm0 18.17h90.9v9.1h-90.9zm0 18.18h90.9v9.1h-90.9zm0 18.19h90.9v9.09h-90.9z"/>
  <path fill="#4c5551" d="M272.73 90.9h90.9v90.92h-90.9z"/>
  <path fill="#a92249" d="m409.1 90.9 45.45 45.46-45.46 45.46-45.45-45.46 45.45-45.45Z"/>
  <path fill="#458d74" fill-rule="evenodd" d="M500 181.82a45.45 45.45 0 1 0 0-90.91 45.45 45.45 0 0 0 0 90.9Zm0-13.64a31.82 31.82 0 1 0 0-63.63 31.82 31.82 0 0 0 0 63.63Z" clip-rule="evenodd"/>
  <path fill="#ec9d1e" fill-rule="evenodd" d="M590.9 181.82a45.45 45.45 0 1 0 0-90.91 45.45 45.45 0 0 0 0 90.9Zm0-13.64a31.82 31.82 0 1 0 0-63.63 31.82 31.82 0 0 0 0 63.63Z" clip-rule="evenodd"/>
  <path fill="#a22348" d="M636.36 90.9h90.91v90.92h-90.9z"/>
  <path fill="#916a2d" d="m818.18 90.9 90.91 90.92h-90.9z"/>
  <path fill="#3a313f" d="M909.1 181.82A90.9 90.9 0 0 1 1000 90.9l-90.9 90.9a90.9 90.9 0 0 0 90.9-90.9"/>
  <path fill="#52c495" d="m136.36 181.82 45.46 45.45-45.46 45.46-45.45-45.46 45.45-45.45Z"/>
  <path fill="#76836c" d="M272.73 181.82a90.9 90.9 0 0 0 90.9 90.9v-90.9"/>
  <path fill="#b2c693" d="M454.55 181.82h90.9v90.9h-90.9z"/>
  <path fill="#d11c4d" d="m545.45 181.82 90.91 90.9h-90.9z"/>
  <path fill="#4f2e41" d="M636.36 181.82h90.91v90.9z"/>
  <path fill="#bfd69c" d="M727.27 181.82h90.91v90.9h-90.9z"/>
  <path fill="#5ae0a6" fill-rule="evenodd" d="M954.55 272.73a45.45 45.45 0 1 0 0-90.91 45.45 45.45 0 0 0 0 90.9Zm0-13.64a31.82 31.82 0 1 0 0-63.64 31.82 31.82 0 0 0 0 63.64Z" clip-rule="evenodd"/>
  <path fill="#403d3b" d="M90.9 272.73h90.92v90.9H90.9z"/>
  <path fill="#41484a" d="M181.82 363.64a90.9 90.9 0 0 0 90.9-90.91h-90.9"/>
  <path fill="#3f4649" d="M272.73 272.73h90.9v90.9z"/>
  <path fill="#8f2647" fill-rule="evenodd" d="M500 363.64a45.45 45.45 0 1 0 0-90.91 45.45 45.45 0 0 0 0 90.9Zm0-13.64a31.82 31.82 0 1 0 0-63.64 31.82 31.82 0 0 0 0 63.64Z" clip-rule="evenodd"/>
  <path fill="#489b7c" d="M636.36 272.73h90.91v90.9h-90.9z"/>
  <path fill="#365251" d="m727.27 272.73 90.91 90.9h-90.9z"/>
  <path fill="#50b98e" d="M818.18 272.73h90.91v9.09h-90.9zm0 18.17h90.91v9.1h-90.9zm0 18.2h90.91v9.08h-90.9zm0 18.17h90.91v9.1h-90.9zm0 18.18h90.91v9.1h-90.9z"/>
  <path fill="#444c4d" fill-rule="evenodd" d="M954.55 363.64a45.45 45.45 0 1 0 0-90.91 45.45 45.45 0 0 0 0 90.9Zm0-13.64a31.82 31.82 0 1 0 0-63.64 31.82 31.82 0 0 0 0 63.64Z" clip-rule="evenodd"/>
  <path fill="#469177" fill-rule="evenodd" d="M1045.45 363.64a45.45 45.45 0 1 0 0-90.91 45.45 45.45 0 0 0 0 90.9Zm0-13.64a31.82 31.82 0 1 0 0-63.64 31.82 31.82 0 0 0 0 63.64Z" clip-rule="evenodd"/>
  <path fill="#f3a11d" d="m45.45 363.64 45.46 45.45-45.46 45.46L0 409.09l45.45-45.45Z"/>
  <path fill="#b0214a" d="m136.36 363.64 45.46 45.45-45.46 45.46-45.45-45.46 45.45-45.45Z"/>
  <path fill="#4ba683" d="M272.73 363.64h90.9v9.09h-90.9zm0 18.18h90.9v9.09h-90.9zm0 18.18h90.9v9.1h-90.9zm0 18.18h90.9v9.1h-90.9zm0 18.18h90.9v9.1h-90.9z"/>
  <path fill="#32353d" d="M545.45 363.64h90.91v9.09h-90.9zm0 18.18h90.91v9.09h-90.9zm0 18.18h90.91v9.1h-90.9zm0 18.18h90.91v9.1h-90.9zm0 18.18h90.91v9.1h-90.9z"/>
  <path fill="#5b2d42" d="m681.82 363.64 45.45 45.45-45.45 45.46-45.46-45.46 45.46-45.45Z"/>
  <path fill="#bd1f4b" d="m863.64 363.64 45.45 45.45-45.45 45.46-45.46-45.46 45.46-45.45Z"/>
  <path fill="#b1c693" d="M1000 363.64h90.9v9.09H1000zm0 18.18h90.9v9.09H1000zm0 18.18h90.9v9.1H1000zm0 18.18h90.9v9.1H1000zm0 18.18h90.9v9.1H1000z"/>
  <path fill="#3d313f" fill-rule="evenodd" d="M45.45 545.45a45.45 45.45 0 1 0 0-90.9 45.45 45.45 0 0 0 0 90.9Zm0-13.63a31.82 31.82 0 1 0 0-63.64 31.82 31.82 0 0 0 0 63.64Z" clip-rule="evenodd"/>
  <path fill="#922547" d="m181.82 454.55 90.9 90.9h-90.9z"/>
  <path fill="#42826d" fill-rule="evenodd" d="M318.18 545.45a45.45 45.45 0 1 0 0-90.9 45.45 45.45 0 0 0 0 90.9Zm0-13.63a31.82 31.82 0 1 0 0-63.64 31.82 31.82 0 0 0 0 63.64Z" clip-rule="evenodd"/>
  <path fill="#e5991f" fill-rule="evenodd" d="M409.1 545.45a45.45 45.45 0 1 0-.01-90.9 45.45 45.45 0 0 0 0 90.9Zm0-13.63a31.82 31.82 0 1 0 0-63.64 31.82 31.82 0 0 0 0 63.64Z" clip-rule="evenodd"/>
  <path fill="#97a982" d="M590.9 454.55 636.37 500l-45.45 45.45L545.45 500l45.46-45.45Z"/>
  <path fill="#8c9c7b" fill-rule="evenodd" d="M772.73 545.45a45.45 45.45 0 1 0 0-90.9 45.45 45.45 0 0 0 0 90.9Zm0-13.63a31.82 31.82 0 1 0 0-63.64 31.82 31.82 0 0 0 0 63.64Z" clip-rule="evenodd"/>
  <path fill="#fca61b" d="M909.1 545.45a90.9 90.9 0 0 1 90.9-90.9l-90.9 90.9a90.9 90.9 0 0 0 90.9-90.9"/>
  <path fill="#fda61b" d="M181.82 545.45v90.91H90.9z"/>
  <path fill="#b7204a" d="m227.27 545.45 45.46 45.46-45.46 45.45-45.45-45.45 45.45-45.46Z"/>
  <path fill="#375854" d="M272.73 545.45a90.9 90.9 0 0 1 90.9 90.91l-90.9-90.9a90.9 90.9 0 0 0 90.9 90.9"/>
  <path fill="#355050" d="m409.1 545.45 45.45 45.46-45.46 45.45-45.45-45.45 45.45-45.46Z"/>
  <path fill="#b37d28" d="M454.55 545.45a90.9 90.9 0 0 1 90.9 90.91h-90.9"/>
  <path fill="#922547" d="M727.27 545.45h90.91l-90.9 90.91z"/>
  <path fill="#7e6030" d="M0 727.27a90.9 90.9 0 0 1 90.9-90.9v90.9"/>
  <path fill="#417e6b" d="m136.36 636.36 45.46 45.46-45.46 45.45-45.45-45.45 45.45-45.46Z"/>
  <path fill="#448a72" d="M181.82 636.36h90.9v9.1h-90.9zm0 18.19h90.9v9.09h-90.9zm0 18.18h90.9v9.09h-90.9zm0 18.17h90.9v9.1h-90.9zm0 18.2h90.9v9.08h-90.9z"/>
  <path fill="#5a2d42" d="M363.64 636.36h90.9v90.91h-90.9z"/>
  <path fill="#4eb28a" d="M454.55 727.27a90.9 90.9 0 0 0 90.9-90.9h-90.9"/>
  <path fill="#566058" fill-rule="evenodd" d="M590.9 727.27a45.45 45.45 0 1 0 0-90.9 45.45 45.45 0 0 0 0 90.9Zm0-13.63a31.82 31.82 0 1 0 0-63.64 31.82 31.82 0 0 0 0 63.64Z" clip-rule="evenodd"/>
  <path fill="#ad214a" fill-rule="evenodd" d="M681.82 727.27a45.45 45.45 0 1 0 0-90.9 45.45 45.45 0 0 0 0 90.9Zm0-13.63a31.82 31.82 0 1 0 0-63.64 31.82 31.82 0 0 0 0 63.64Z" clip-rule="evenodd"/>
</svg>
